<?xml version="1.0" standalone="no"?>
<!DOCTYPE svg PUBLIC "-//W3C//DTD SVG 20010904//EN"
 "http://www.w3.org/TR/2001/REC-SVG-20010904/DTD/svg10.dtd">
<svg version="1.0" xmlns="http://www.w3.org/2000/svg"
 width="260.000000pt" height="260.000000pt" viewBox="0 0 260.000000 260.000000"
 preserveAspectRatio="xMidYMid meet">
<metadata>
Created by potrace 1.11, written by Peter Selinger 2001-2013
</metadata>
<g transform="translate(0.000000,260.000000) scale(0.100000,-0.100000)"
fill="#000000" stroke="none">
<path d="M913 2307 l-383 -221 0 -238 0 -238 -37 0 c-31 0 -41 -5 -54 -28 -8
-15 -109 -188 -222 -385 l-207 -358 222 -384 222 -385 846 0 846 0 222 385
222 384 -207 358 c-113 197 -214 370 -222 385 -13 23 -23 28 -53 28 l-38 0 0
238 0 238 -381 219 c-209 121 -384 221 -387 222 -4 1 -179 -98 -389 -220z
m703 -343 l304 -176 0 -89 0 -89 -620 0 -620 0 0 89 0 89 303 176 c166 96 308
175 315 176 8 0 150 -79 318 -176z m-456 -512 c0 -10 -169 -304 -183 -319 -9
-9 -45 7 -154 70 l-143 82 0 87 0 88 240 0 c132 0 240 -3 240 -8z m760 -80 l0
-87 -142 -82 c-110 -63 -146 -79 -155 -70 -14 15 -183 309 -183 319 0 5 108 8
240 8 l240 0 0 -88z m-525 -153 c48 -82 89 -158 91 -167 3 -13 -20 -31 -91
-71 l-95 -53 -95 53 c-71 40 -94 58 -91 71 6 25 178 318 186 318 4 0 47 -68
95 -151z m-236 -384 c71 -41 135 -75 141 -75 6 0 70 34 142 75 72 42 132 74
132 73 1 -2 10 -16 20 -31 9 -16 16 -34 14 -42 -4 -18 -302 -535 -308 -535 -4
0 -281 474 -304 522 -6 13 -3 29 10 53 10 19 19 35 20 35 1 0 61 -34 133 -75z"/>
</g>
</svg>
